<svg width="19" height="19" viewBox="0 0 19 19" fill="none" xmlns="http://www.w3.org/2000/svg">
  <path fill-rule="evenodd" clip-rule="evenodd"
    d="M9.16667 18.3333C14.2293 18.3333 18.3333 14.2293 18.3333 9.16667C18.3333 4.10406 14.2293 0 9.16667 0C4.10406 0 0 4.10406 0 9.16667C0 14.2293 4.10406 18.3333 9.16667 18.3333ZM13.4245 6.1744C13.0375 5.84793 12.4592 5.89694 12.1327 6.28387L8.11158 11.0486L6.1237 9.20323L6.03457 9.13023C5.66485 8.86415 5.14619 8.90883 4.82823 9.2513C4.48377 9.62231 4.50529 10.2023 4.8763 10.5468L7.42813 12.916L7.52035 12.9928C7.96488 13.324 8.5969 13.2738 8.98269 12.8583L13.5339 7.46613L13.6026 7.37364C13.8509 6.99172 13.7816 6.47576 13.4245 6.1744Z"
    fill="#0590C4" />
</svg>