<svg width="128" height="44" viewBox="0 0 128 44" fill="none" xmlns="http://www.w3.org/2000/svg">
  <g clipPath="url(#clip0_785_3977)">
    <path
      d="M123.942 37.0246C124.686 36.9291 125.442 37.0631 126.103 37.408C126.765 37.7529 127.299 38.2912 127.631 38.9474C127.963 39.6036 128.076 40.3448 127.954 41.0669C127.832 41.7889 127.482 42.4557 126.952 42.9734C126.422 43.4912 125.739 43.8341 124.999 43.9538C124.259 44.0736 123.499 43.9643 122.826 43.6413C122.153 43.3182 121.6 42.7977 121.246 42.1527C120.892 41.5077 120.753 40.7706 120.85 40.0449C120.953 39.2795 121.311 38.5684 121.87 38.0222C122.429 37.476 123.158 37.1253 123.942 37.0246Z"
      fill="url(#paint0_linear_785_3977)" />
    <path d="M21.5371 22.5923H27.027V43.1923H21.5371V22.5923Z" fill="#3D3F3F" />
    <path
      d="M117.525 27.948V22.592H110.769V22.5913H105.279V22.592H99.7891V27.948H105.279V34.54C105.283 36.9973 106.285 39.353 108.066 41.0907C109.847 42.8285 112.261 43.8064 114.78 43.8102V38.4542C113.718 38.4476 112.702 38.033 111.951 37.3004C111.2 36.5677 110.775 35.576 110.769 34.54V27.948L117.525 27.948Z"
      fill="#3D3F3F" />
    <path d="M97.2716 22.5913H75.3828V43.192H97.2716V22.5913Z" fill="black" />
    <path
      d="M79.3955 28.8224H88.0211V31.4668C87.6308 31.4735 87.2587 31.6295 86.9851 31.9012C86.7115 32.1729 86.5582 32.5386 86.5582 32.9195C86.5582 33.3004 86.7115 33.6661 86.9851 33.9378C87.2587 34.2095 87.6308 34.3655 88.0211 34.3722V37.0165H79.4205C79.5043 37.2596 79.5971 37.4959 79.6967 37.7299C80.0094 38.4115 80.399 39.0569 80.8585 39.6541C82.0291 41.19 83.7059 42.2858 85.6072 42.7576C85.9201 42.8653 86.2458 42.9341 86.5764 42.9623C86.9904 43.0323 87.4087 43.0752 87.8286 43.0906C88.757 43.1582 89.7716 43.192 90.8721 43.1919H97.2716V37.0165H90.2856V35.1622H97.2716V32.754C97.2736 31.9191 97.1962 31.0859 97.0406 30.265C96.7758 28.8395 96.2139 27.4822 95.3898 26.2771C94.5633 25.0708 92.9033 23.0859 89.7603 22.6988C86.2661 22.2689 84.6266 23.2456 83.9562 23.5697C82.615 24.1742 81.4715 25.1293 80.6524 26.3289C80.1213 27.1017 79.6986 27.9403 79.3955 28.8224ZM82.4413 31.4668C82.8301 31.4758 83.1998 31.6329 83.4714 31.9043C83.7431 32.1758 83.8951 32.5401 83.8951 32.9195C83.8951 33.2989 83.7431 33.6632 83.4714 33.9347C83.1998 34.2061 82.8301 34.3631 82.4413 34.3722H82.4323C82.0419 34.3655 81.6699 34.2095 81.3963 33.9378C81.1227 33.6661 80.9694 33.3004 80.9694 32.9195C80.9694 32.5386 81.1227 32.1729 81.3963 31.9012C81.6699 31.6295 82.0419 31.4735 82.4323 31.4668H82.4413ZM76.8435 31.4668C77.1391 31.4612 77.4298 31.5416 77.6785 31.6978C77.9271 31.854 78.1224 32.0789 78.2396 32.3438C78.3568 32.6087 78.3905 32.9017 78.3363 33.1853C78.2822 33.469 78.1428 33.7305 77.9358 33.9365C77.7288 34.1426 77.4636 34.2839 77.174 34.3423C76.8844 34.4008 76.5835 34.3739 76.3097 34.2649C76.0359 34.1559 75.8015 33.9699 75.6364 33.7305C75.4714 33.4911 75.3831 33.2092 75.3829 32.9207C75.3795 32.5391 75.5313 32.1717 75.8051 31.8991C76.0789 31.6266 76.4523 31.4711 76.8435 31.4668Z"
      fill="url(#paint1_linear_785_3977)" />
    <path
      d="M80.1553 38.6027L88.0244 37.0161H79.4238C79.5076 37.2591 79.6005 37.4955 79.7002 37.7295C79.8451 38.0356 79.9968 38.3281 80.1553 38.6027Z"
      fill="#123C3F" />
    <path
      d="M66.1736 31.9855L74.2394 22.5918H67.0604L60.0504 30.7082V22.5913H54.5605V43.1919H60.0504V39.0717L62.5845 36.1467L68.1585 43.1919H75.0837L66.1736 31.9855Z"
      fill="#3D3F3F" />
    <path
      d="M17.7363 27.948V22.592H10.9797V22.5913H5.48985V22.592H0V27.948H5.48985V34.54C5.49363 36.9974 6.49589 39.3531 8.27694 41.0908C10.058 42.8286 12.4726 43.8065 14.9914 43.8102V38.4542C13.9294 38.4477 12.9129 38.0332 12.162 37.3005C11.4111 36.5678 10.9863 35.576 10.9797 34.54V27.948L17.7363 27.948Z"
      fill="#3D3F3F" />
    <path
      d="M42.441 38.4544C43.9434 38.4571 45.3857 37.8794 46.4527 36.8476L50.338 40.6378C48.7711 42.1705 46.7733 43.2151 44.5976 43.6395C42.4219 44.0638 40.166 43.8489 38.1156 43.0218C36.0652 42.1947 34.3124 40.7926 33.0791 38.9931C31.8458 37.1937 31.1875 35.0776 31.1875 32.9129C31.1875 30.7482 31.8458 28.6322 33.0791 26.8327C34.3124 25.0332 36.0652 23.6312 38.1156 22.8041C40.166 21.977 42.4219 21.762 44.5976 22.1864C46.7733 22.6108 48.7711 23.6554 50.338 25.188L46.4527 28.9782C45.9325 28.4538 45.309 28.0374 44.6195 27.7542C43.9301 27.471 43.1891 27.3268 42.441 27.3302C40.9297 27.3313 39.4806 27.9177 38.4123 28.9607C37.344 30.0037 36.7439 31.4178 36.7439 32.8923C36.7439 34.3668 37.344 35.781 38.4123 36.8239C39.4806 37.8669 40.9297 38.4534 42.441 38.4544Z"
      fill="#3D3F3F" />
    <path
      d="M49.5195 21.2181V15.8621L60.0346 5.9742H49.5195V0.618164H67.9315V5.9742L57.3745 15.8621H67.9315V21.2181H49.5195Z"
      fill="#3D3F3F" />
    <path
      d="M11.8906 10.0117L19.9562 0.617985H12.7772L5.76724 8.73435V0.617188H0.277344V21.2178H5.76724V17.0978L8.30125 14.1725L13.8753 21.2178H20.8005L11.8906 10.0117Z"
      fill="#3D3F3F" />
    <path
      d="M44.4534 21.218H38.9635V20.3117C37.4821 21.1674 35.8182 21.6781 34.1014 21.8041C32.3846 21.93 30.6612 21.6678 29.0652 21.0378C27.4693 20.4078 26.0439 19.427 24.8999 18.1717C23.7559 16.9165 22.9242 15.4207 22.4695 13.8006C22.0149 12.1806 21.9495 10.48 22.2785 8.83129C22.6074 7.18257 23.3219 5.63014 24.3663 4.2948C25.4106 2.95946 26.7567 1.87724 28.2998 1.13234C29.8429 0.38744 31.5413 -4.23902e-05 33.263 4.481e-05C35.2755 -0.00567664 37.2497 0.536605 38.9635 1.56588V0.617997H44.4534V21.218ZM33.263 5.35608C32.1354 5.35601 31.0332 5.68216 30.0957 6.29327C29.1581 6.90438 28.4274 7.773 27.9958 8.7893C27.5643 9.8056 27.4513 10.9239 27.6713 12.0029C27.8912 13.0818 28.4341 14.0728 29.2314 14.8507C30.0287 15.6286 31.0445 16.1584 32.1503 16.373C33.2562 16.5876 34.4025 16.4775 35.4442 16.0565C36.4859 15.6356 37.3763 14.9227 38.0027 14.008C38.6291 13.0934 38.9635 12.018 38.9635 10.918C38.9666 10.1868 38.8213 9.46216 38.536 8.786C38.2506 8.10984 37.8308 7.4955 37.3009 6.97843C36.7709 6.46135 36.1412 6.05177 35.4482 5.77332C34.7552 5.49488 34.0125 5.35307 33.263 5.35608Z"
      fill="#3D3F3F" />
  </g>
  <defs>
    <linearGradient id="paint0_linear_785_3977" x1="126.205" y1="43.53" x2="122.748" y2="37.3919"
      gradientUnits="userSpaceOnUse">
      <stop stop-color="#E2B33D" />
      <stop offset="1" stop-color="#FBF320" />
    </linearGradient>
    <linearGradient id="paint1_linear_785_3977" x1="93.3234" y1="43.1864" x2="81.7111" y2="22.5709"
      gradientUnits="userSpaceOnUse">
      <stop stop-color="#0590C4" />
      <stop offset="0.52421" stop-color="#1D6387" />
      <stop offset="1" stop-color="#1E3E85" />
    </linearGradient>
    <clipPath id="clip0_785_3977">
      <rect width="128" height="44" fill="white" />
    </clipPath>
  </defs>
</svg>