<svg width="751" height="601" viewBox="0 0 751 601" fill="none" xmlns="http://www.w3.org/2000/svg">
<g clip-path="url(#clip0_223_51)">
<path d="M751 0H0V601H751V0Z" fill="white"/>
<path d="M333.393 298.773H321.566V296.771C318.375 298.661 314.79 299.789 311.092 300.067C307.394 300.345 303.681 299.766 300.243 298.375C296.805 296.983 293.734 294.817 291.27 292.044C288.806 289.272 287.014 285.968 286.034 282.389C285.055 278.811 284.914 275.055 285.623 271.413C286.331 267.771 287.871 264.342 290.12 261.393C292.37 258.444 295.27 256.053 298.594 254.408C301.918 252.763 305.577 251.907 309.286 251.907C313.621 251.894 317.874 253.092 321.566 255.365V253.272H333.393V298.773ZM309.286 263.737C306.857 263.737 304.482 264.457 302.463 265.807C300.443 267.157 298.869 269.076 297.939 271.32C297.01 273.565 296.766 276.035 297.24 278.418C297.714 280.802 298.883 282.991 300.601 284.709C302.318 286.427 304.507 287.597 306.889 288.071C309.271 288.545 311.741 288.302 313.985 287.372C316.229 286.442 318.147 284.868 319.496 282.847C320.846 280.827 321.566 278.452 321.566 276.022C321.573 274.407 321.26 272.807 320.645 271.313C320.03 269.82 319.126 268.463 317.984 267.321C316.843 266.178 315.486 265.274 313.993 264.659C312.5 264.044 310.901 263.73 309.286 263.737Z" fill="#3D3F3F"/>
<path d="M344.311 298.772V286.942L366.963 265.102H344.311V253.271H383.975V265.102L361.233 286.942H383.975V298.772L344.311 298.772Z" fill="#3D3F3F"/>
<path d="M284.026 301.808H295.852V347.309H284.026V301.808Z" fill="#3D3F3F"/>
<path d="M329.057 336.844C332.293 336.85 335.4 335.574 337.699 333.295L346.069 341.666C342.693 345.052 338.39 347.359 333.703 348.296C329.016 349.234 324.156 348.759 319.739 346.932C315.322 345.105 311.546 342.008 308.889 338.034C306.232 334.059 304.814 329.385 304.814 324.604C304.814 319.822 306.232 315.149 308.889 311.174C311.546 307.199 315.322 304.102 319.739 302.276C324.156 300.449 329.016 299.974 333.703 300.911C338.39 301.849 342.693 304.156 346.069 307.541L337.699 315.913C336.578 314.754 335.235 313.835 333.75 313.209C332.265 312.584 330.668 312.265 329.057 312.273C325.801 312.275 322.68 313.57 320.378 315.874C318.077 318.178 316.784 321.301 316.784 324.558C316.784 327.815 318.077 330.939 320.378 333.242C322.68 335.546 325.801 336.841 329.057 336.844Z" fill="#3D3F3F"/>
<path d="M263.253 274.02L280.628 253.272H265.163L250.062 271.2V253.271H238.236V298.773H250.062V289.672L255.521 283.211L267.528 298.773H282.448L263.253 274.02Z" fill="#3D3F3F"/>
<path d="M380.184 322.556L397.559 301.807H382.094L366.993 319.734V301.806H355.167V347.308H366.993V338.208L372.452 331.747L384.46 347.308H399.379L380.184 322.556Z" fill="#3D3F3F"/>
<path d="M275.838 313.638V301.808H261.282V301.806H249.456V301.808H237.629V313.638H249.456V328.198C249.464 333.626 251.623 338.829 255.46 342.668C259.297 346.506 264.498 348.666 269.924 348.674V336.844C267.637 336.829 265.447 335.914 263.829 334.296C262.212 332.677 261.296 330.487 261.282 328.198V313.638H275.838Z" fill="#3D3F3F"/>
<path d="M490.808 313.638V301.808H476.252V301.806H464.426V301.808H452.6V313.638H464.426V328.198C464.434 333.626 466.593 338.829 470.43 342.667C474.266 346.506 479.468 348.666 484.894 348.674V336.844C482.606 336.829 480.416 335.913 478.799 334.295C477.182 332.677 476.267 330.486 476.252 328.198V313.638H490.808Z" fill="#3D3F3F"/>
<path d="M504.629 333.686C506.231 333.475 507.859 333.771 509.284 334.533C510.709 335.294 511.86 336.483 512.575 337.933C513.291 339.382 513.534 341.019 513.272 342.614C513.009 344.209 512.254 345.682 511.112 346.826C509.97 347.969 508.499 348.726 506.905 348.991C505.311 349.256 503.674 349.014 502.224 348.301C500.774 347.587 499.584 346.437 498.821 345.013C498.058 343.588 497.76 341.96 497.969 340.357C498.189 338.666 498.961 337.096 500.166 335.889C501.37 334.683 502.939 333.908 504.629 333.686Z" fill="url(#paint0_linear_223_51)"/>
<mask id="mask0_223_51" style="mask-type:luminance" maskUnits="userSpaceOnUse" x="400" y="301" width="48" height="47">
<path d="M447.174 301.806H400.021V347.309H447.174V301.806Z" fill="white"/>
</mask>
<g mask="url(#mask0_223_51)">
<path d="M408.665 315.569H427.246V321.41C426.406 321.425 425.604 321.77 425.015 322.37C424.425 322.97 424.095 323.778 424.095 324.619C424.095 325.46 424.425 326.268 425.015 326.868C425.604 327.468 426.406 327.813 427.246 327.828V333.668H408.719C408.899 334.205 409.099 334.727 409.314 335.244C409.987 336.749 410.827 338.175 411.816 339.494C414.338 342.887 417.95 345.307 422.046 346.349C422.72 346.587 423.422 346.739 424.134 346.801C425.026 346.956 425.927 347.051 426.832 347.085C428.832 347.234 431.017 347.309 433.388 347.308H447.174V333.668H432.125V329.572H447.174V324.253C447.178 322.409 447.012 320.569 446.676 318.756C446.106 315.607 444.896 312.609 443.12 309.947C441.34 307.283 437.764 302.899 430.993 302.044C423.466 301.094 419.934 303.251 418.49 303.967C415.6 305.303 413.137 307.412 411.373 310.062C410.229 311.769 409.318 313.621 408.665 315.569ZM415.226 321.41C416.064 321.43 416.86 321.777 417.445 322.377C418.031 322.976 418.358 323.781 418.358 324.619C418.358 325.457 418.031 326.262 417.445 326.861C416.86 327.461 416.064 327.808 415.226 327.828H415.207C414.366 327.813 413.564 327.468 412.975 326.868C412.386 326.268 412.055 325.46 412.055 324.619C412.055 323.778 412.386 322.97 412.975 322.37C413.564 321.77 414.366 321.425 415.207 321.41H415.226ZM403.167 321.41C403.804 321.398 404.43 321.575 404.966 321.92C405.502 322.266 405.922 322.762 406.175 323.347C406.427 323.932 406.5 324.58 406.383 325.206C406.267 325.833 405.966 326.41 405.52 326.865C405.074 327.32 404.503 327.632 403.879 327.762C403.256 327.891 402.607 327.831 402.017 327.591C401.428 327.35 400.923 326.939 400.567 326.41C400.211 325.881 400.021 325.259 400.021 324.621C400.013 323.779 400.341 322.967 400.93 322.365C401.52 321.763 402.325 321.42 403.167 321.41Z" fill="url(#paint1_linear_223_51)"/>
<path d="M410.294 337.173L427.246 333.668H408.719C408.899 334.205 409.099 334.727 409.314 335.244C409.626 335.92 409.953 336.566 410.294 337.173Z" fill="#123C3F"/>
</g>
</g>
<defs>
<linearGradient id="paint0_linear_223_51" x1="509.504" y1="348.055" x2="501.769" y2="334.662" gradientUnits="userSpaceOnUse">
<stop stop-color="#E2B33D"/>
<stop offset="1" stop-color="#FBF320"/>
</linearGradient>
<linearGradient id="paint1_linear_223_51" x1="438.669" y1="347.296" x2="412.691" y2="302.317" gradientUnits="userSpaceOnUse">
<stop stop-color="#0590C4"/>
<stop offset="0.52421" stop-color="#1D6387"/>
<stop offset="1" stop-color="#1E3E85"/>
</linearGradient>
<clipPath id="clip0_223_51">
<rect width="751" height="601" fill="white"/>
</clipPath>
</defs>
</svg>
