<svg width="700" height="400" viewBox="0 0 700 400" fill="none" xmlns="http://www.w3.org/2000/svg">
<rect width="700" height="400" fill="#D9D9D9"/>
<path d="M457.712 106H457.706L241.71 106L241.705 106C238.599 106.004 235.622 107.241 233.427 109.439C231.233 111.636 230 114.615 230 117.721V282.279C230 285.385 231.233 288.364 233.427 290.561C235.622 292.759 238.599 293.996 241.705 294H241.71H457.706H457.712C460.817 293.996 463.795 292.759 465.989 290.561C468.184 288.364 469.417 285.385 469.417 282.279V117.721C469.417 114.615 468.184 111.636 465.989 109.439C463.795 107.241 460.817 106.004 457.712 106ZM302.239 168.644L243.144 271.718V119.144H456.273V273.368L408.14 200.802C408.138 200.8 408.137 200.798 408.135 200.796C407.079 199.19 405.65 197.863 403.969 196.929C402.289 195.995 400.407 195.482 398.485 195.433C396.544 195.38 394.621 195.811 392.888 196.686C391.165 197.555 389.684 198.837 388.577 200.417L366.207 231.324L322.406 167.771C322.403 167.768 322.4 167.764 322.398 167.76C321.261 166.093 319.719 164.744 317.916 163.839C316.108 162.932 314.099 162.502 312.079 162.589C310.059 162.677 308.095 163.279 306.373 164.338C304.657 165.394 303.238 166.87 302.25 168.625C302.246 168.632 302.243 168.638 302.239 168.644ZM398.177 209.567L445.457 280.856H253.053L312.686 176.842L356.356 240.225C356.36 240.23 356.364 240.236 356.367 240.241C357.439 241.82 358.877 243.118 360.559 244.022C362.226 244.918 364.083 245.402 365.975 245.433C367.917 245.509 369.847 245.085 371.579 244.202C373.303 243.323 374.774 242.019 375.852 240.413L398.177 209.567ZM398.558 147.15H398.555C395.222 147.153 391.965 148.144 389.195 149.997C386.425 151.851 384.267 154.484 382.994 157.564C381.72 160.644 381.388 164.032 382.04 167.301C382.692 170.569 384.298 173.571 386.656 175.927C389.014 178.282 392.017 179.886 395.286 180.535C398.555 181.185 401.943 180.85 405.022 179.574C408.101 178.298 410.732 176.138 412.583 173.366C414.435 170.595 415.423 167.337 415.423 164.004V164.001C415.419 159.531 413.641 155.244 410.478 152.085C407.316 148.925 403.029 147.15 398.558 147.15ZM398.556 167.715C397.82 167.714 397.102 167.496 396.49 167.087C395.878 166.678 395.402 166.097 395.12 165.416C394.839 164.736 394.765 163.988 394.909 163.266C395.053 162.544 395.408 161.881 395.929 161.361C396.45 160.841 397.113 160.487 397.835 160.344C398.558 160.201 399.306 160.275 399.986 160.557C400.665 160.84 401.246 161.318 401.655 161.93C402.063 162.542 402.28 163.262 402.279 163.998C402.275 164.983 401.882 165.927 401.184 166.623C400.487 167.32 399.542 167.713 398.556 167.715Z" fill="white" stroke="white" stroke-width="8"/>
</svg>
