<svg xmlns="http://www.w3.org/2000/svg" width="602" height="210" viewBox="0 0 602 210" fill="none">
    <path d="M209.187 101.288H183.4V96.9854C175.273 101.727 166.033 104.224 156.624 104.221C149.756 104.318 142.938 103.049 136.565 100.488C130.192 97.9274 124.391 94.1254 119.5 89.3032C114.609 84.481 110.726 78.7349 108.075 72.3987C105.424 66.0626 104.059 59.2627 104.059 52.3944C104.059 45.5261 105.424 38.7263 108.075 32.3902C110.726 26.054 114.609 20.3078 119.5 15.4856C124.391 10.6635 130.192 6.86147 136.565 4.30053C142.938 1.73959 149.756 0.4708 156.624 0.567927C166.063 0.536767 175.328 3.10865 183.4 8.00085V3.50117H209.187V101.288ZM156.624 25.9926C151.418 26.0659 146.35 27.6767 142.057 30.6224C137.764 33.5681 134.437 37.7172 132.496 42.5481C130.554 47.3791 130.084 52.6762 131.145 57.7735C132.205 62.8708 134.749 67.5408 138.457 71.1963C142.164 74.8518 146.869 77.3297 151.981 78.3184C157.093 79.3072 162.383 78.7627 167.186 76.7533C171.989 74.744 176.091 71.3595 178.976 67.0253C181.861 62.6912 183.4 57.601 183.4 52.3945C183.39 48.8986 182.687 45.4394 181.334 42.2164C179.98 38.9933 178.001 36.0702 175.512 33.6157C173.022 31.1613 170.072 29.2239 166.83 27.9156C163.588 26.6072 160.119 25.9536 156.624 25.9926Z" fill="white"/>
    <path d="M232.995 101.288V75.863L282.386 28.9259H232.995V3.50116H319.479V28.9258L269.891 75.863H319.479V101.288H232.995Z" fill="white"/>
    <path d="M101.545 107.81H127.332V205.596H101.545V107.81Z" fill="white"/>
    <path d="M199.733 183.107C206.771 183.128 213.536 180.389 218.577 175.48L236.827 193.471C229.57 200.747 220.318 205.706 210.242 207.72C200.165 209.735 189.718 208.715 180.222 204.788C170.725 200.862 162.608 194.207 156.896 185.665C151.184 177.123 148.135 167.078 148.135 156.802C148.135 146.526 151.184 136.481 156.896 127.939C162.608 119.397 170.725 112.742 180.222 108.815C189.718 104.889 200.165 103.869 210.242 105.883C220.318 107.898 229.57 112.857 236.827 120.132L218.577 138.124C215.524 134.965 211.734 132.613 207.547 131.28C203.361 129.947 198.909 129.674 194.591 130.486C190.273 131.298 186.224 133.169 182.808 135.932C179.391 138.694 176.714 142.262 175.016 146.314C173.319 150.367 172.654 154.777 173.081 159.15C173.508 163.523 175.015 167.721 177.465 171.368C179.915 175.015 183.232 177.997 187.119 180.046C191.006 182.094 195.34 183.146 199.733 183.107Z" fill="white"/>
    <path d="M56.2535 48.0937L94.1386 3.50116H60.4159L27.4918 42.0316V3.49713H1.70264V101.289H27.4918V81.7276L39.3901 67.8449L65.5745 101.289H98.1033L56.2535 48.0937Z" fill="white"/>
    <path d="M311.212 152.4L349.101 107.811H315.379L282.451 146.338V107.807H256.666V205.595H282.451V186.038L294.353 172.155L320.537 205.595H353.066L311.212 152.4Z" fill="white"/>
    <path d="M83.6915 133.235V107.81H51.9544L26.1676 107.807L0.380859 107.81V133.235H26.1676V164.526C26.2689 176.274 31.0235 187.503 39.3893 195.751C47.7551 204 59.0498 208.596 70.7981 208.531V183.107C65.8448 183.11 61.0895 181.162 57.5624 177.684C54.0353 174.206 52.0205 169.479 51.9544 164.526V133.235H83.6915Z" fill="white"/>
    <path d="M552.422 133.235V107.81H520.685L494.898 107.807L469.111 107.81V133.235H494.898V164.526C494.999 176.274 499.754 187.502 508.119 195.751C516.484 204 527.779 208.595 539.527 208.531V183.107C534.574 183.11 529.819 181.161 526.292 177.683C522.766 174.206 520.751 169.479 520.685 164.526V133.235H552.422Z" fill="white"/>
    <path d="M582.559 176.32C586.002 175.91 589.487 176.586 592.528 178.253C595.568 179.921 598.011 182.497 599.515 185.621C601.02 188.745 601.51 192.261 600.918 195.678C600.327 199.094 598.682 202.24 596.214 204.677C593.747 207.113 590.58 208.717 587.156 209.264C583.732 209.812 580.222 209.276 577.118 207.732C574.013 206.187 571.469 203.711 569.841 200.65C568.213 197.589 567.582 194.095 568.036 190.657C568.539 187.001 570.235 183.614 572.862 181.021C575.488 178.429 578.897 176.776 582.559 176.32Z" fill="white"/>
    <mask id="mask0_207_104" style="mask-type:luminance" maskUnits="userSpaceOnUse" x="354" y="107" width="104" height="99">
        <path d="M457.282 107.807H354.466V205.596H457.282V107.807Z" fill="white"/>
    </mask>
    <g mask="url(#mask0_207_104)">
        <path d="M373.314 137.386H413.83V149.938C412.006 149.946 410.26 150.676 408.973 151.968C407.686 153.261 406.963 155.01 406.963 156.834C406.963 158.658 407.686 160.408 408.973 161.7C410.26 162.993 412.006 163.723 413.83 163.73V176.282H373.432C373.825 177.436 374.261 178.558 374.729 179.669C376.2 182.908 378.031 185.972 380.186 188.803C385.724 196.113 393.594 201.311 402.492 203.535C403.963 204.046 405.492 204.373 407.044 204.507C408.989 204.839 410.954 205.042 412.926 205.116C417.287 205.437 422.053 205.597 427.222 205.597H457.282V176.282H424.467V167.48H457.282V156.049C457.291 152.085 456.927 148.129 456.196 144.234C454.948 137.456 452.308 131.01 448.442 125.304C445.564 120.694 441.7 116.78 437.127 113.843C432.555 110.906 427.389 109.019 421.999 108.318C405.587 106.277 397.886 110.913 394.737 112.452C388.456 115.305 383.086 119.838 379.218 125.55C376.727 129.211 374.741 133.193 373.314 137.386ZM387.621 149.938C389.438 149.957 391.175 150.691 392.453 151.982C393.732 153.274 394.449 155.017 394.449 156.834C394.449 158.652 393.732 160.395 392.453 161.687C391.175 162.978 389.438 163.712 387.621 163.73H387.579C385.755 163.723 384.008 162.993 382.721 161.701C381.434 160.408 380.712 158.658 380.712 156.834C380.712 155.011 381.434 153.261 382.721 151.968C384.008 150.676 385.755 149.946 387.579 149.938H387.621ZM361.327 149.938C362.692 149.931 364.029 150.33 365.167 151.083C366.306 151.836 367.195 152.911 367.723 154.17C368.25 155.429 368.392 156.816 368.131 158.156C367.869 159.496 367.216 160.728 366.253 161.696C365.291 162.664 364.063 163.325 362.724 163.595C361.386 163.864 359.998 163.731 358.735 163.211C357.473 162.691 356.394 161.808 355.634 160.673C354.874 159.539 354.467 158.205 354.466 156.84C354.463 155.016 355.184 153.265 356.47 151.971C357.756 150.677 359.503 149.946 361.327 149.938Z" fill="white"/>
        <path d="M376.867 183.814L413.83 176.282H373.431C373.825 177.436 374.261 178.558 374.729 179.669C375.41 181.122 376.122 182.51 376.867 183.814Z" fill="#123B3F"/>
    </g>
</svg>