<svg id="Layer_1" data-name="Layer 1"
    xmlns="http://www.w3.org/2000/svg"
    xmlns:xlink="http://www.w3.org/1999/xlink" viewBox="0 0 469.97147 165.58892">
    <defs>
        <style>
            .cls-1{fill:none;}.cls-2{fill:#3d3f3f;}.cls-3{fill:url(#linear-gradient);}.cls-4{clip-path:url(#clip-path);}.cls-5{fill:url(#linear-gradient-2);}.cls-6{fill:#123c3f;}</style>
        <linearGradient id="linear-gradient" x1="463.38069" y1="163.81973" x2="450.20445" y2="140.99781" gradientUnits="userSpaceOnUse">
            <stop offset="0" stop-color="#e2b33d" />
            <stop offset="1" stop-color="#fbf320" />
        </linearGradient>
        <clipPath id="clip-path">
            <rect class="cls-1" x="276.77896" y="85.01976" width="80.36788" height="77.52815" />
        </clipPath>
        <linearGradient id="linear-gradient-2" x1="342.65015" y1="162.52705" x2="298.39636" y2="85.87724" gradientUnits="userSpaceOnUse">
            <stop offset="0" stop-color="#0590c4" />
            <stop offset="0.52421" stop-color="#1d6387" />
            <stop offset="1" stop-color="#1e3e85" />
        </linearGradient>
    </defs>
    <path class="cls-2" d="M163.218,79.85122H143.06114V76.44043A41.08629,41.08629,0,1,1,122.13081,0a39.706,39.706,0,0,1,20.93033,5.89285V2.32559H163.218ZM122.13081,20.15681A20.93159,20.93159,0,1,0,143.06114,41.0884,20.84465,20.84465,0,0,0,122.13081,20.15681Z" />
    <path class="cls-2" d="M181.82773,79.85122V59.6944l38.60761-37.212H181.82773V2.32559h67.60243V22.48241l-38.76155,37.212h38.76155V79.85122Z" />
    <path class="cls-2" d="M79.0777,85.02228H99.23451v77.52563H79.0777Z" />
    <path class="cls-2" d="M155.82855,144.718a20.87,20.87,0,0,0,14.72959-6.0468l14.26523,14.264a41.16692,41.16692,0,1,1,0-58.14358l-14.26523,14.264a20.3636,20.3636,0,0,0-14.72959-6.202,20.93223,20.93223,0,0,0,0,41.86445Z" />
    <polygon class="cls-2" points="43.673 37.678 73.287 2.326 46.928 2.326 21.19 32.871 21.19 2.323 1.033 2.323 1.033 79.851 21.19 79.851 21.19 64.346 30.494 53.337 50.96 79.851 76.387 79.851 43.673 37.678" />
    <polygon class="cls-2" points="242.969 120.374 272.584 85.022 246.225 85.022 220.487 115.567 220.487 85.02 200.33 85.02 200.33 162.548 220.487 162.548 220.487 147.042 229.791 136.034 250.257 162.548 275.684 162.548 242.969 120.374" />
    <path class="cls-2" d="M65.12162,105.1791V85.02228h-24.808v-.00252H20.15681v.00252H0V105.1791H20.15681v24.808a34.94016,34.94016,0,0,0,34.88641,34.88767V144.718a14.82347,14.82347,0,0,1-14.72959-14.73086v-24.808Z" />
    <path class="cls-2" d="M431.51531,105.1791V85.02228h-24.808v-.00252H386.5505v.00252H366.39368V105.1791H386.5505v24.808a34.93986,34.93986,0,0,0,34.88514,34.88767V144.718a14.824,14.824,0,0,1-14.72833-14.73086v-24.808Z" />
    <path class="cls-3" d="M455.07265,139.33758a13.184,13.184,0,1,1-11.35221,11.36666A13.18294,13.18294,0,0,1,455.07265,139.33758Z" />
    <g class="cls-4">
        <path class="cls-5" d="M291.512,108.46979h31.6702v9.9518a5.46806,5.46806,0,0,0,0,10.93441v9.95129H291.60378c.3076.91505.64835,1.80412,1.0141,2.68488a37.75065,37.75065,0,0,0,4.26554,7.24146A31.3585,31.3585,0,0,0,314.319,160.91318a14.47937,14.47937,0,0,0,3.55853.7706,34.52705,34.52705,0,0,0,4.59762.48272q5.11361.38193,11.175.38141h23.4967V139.30729H331.49644v-6.97853h25.65039V123.266a50.86156,50.86156,0,0,0-.84832-9.36722,39.84031,39.84031,0,0,0-6.06112-15.00773c-3.03465-4.53994-9.12945-12.01-20.66967-13.46653-12.82928-1.6181-18.84909,2.05771-21.31037,3.27726a29.38334,29.38334,0,0,0-12.13042,10.38412,39.2535,39.2535,0,0,0-4.615,9.38386m11.18315,9.9518a5.46877,5.46877,0,0,1,0,10.93441H302.662a5.46806,5.46806,0,0,1,0-10.93441Zm-20.55337,0a5.46822,5.46822,0,1,1-5.36278,5.47163,5.4248,5.4248,0,0,1,5.36278-5.47163" />
        <path class="cls-6" d="M294.28921,145.27852l28.89264-5.971H291.60347c.3076.91453.64887,1.80412,1.01461,2.68488.532,1.152,1.08909,2.25257,1.67113,3.28609" />
    </g>
</svg>