<svg width="632" height="342" viewBox="0 0 632 342" fill="none" xmlns="http://www.w3.org/2000/svg">
<path d="M180.118 193.41C179.468 191.686 178.346 190.512 176.751 189.888C175.157 189.265 173.218 189.259 170.935 189.871C169.383 190.286 168.132 190.857 167.182 191.582C166.227 192.293 165.566 193.105 165.199 194.019C164.847 194.929 164.801 195.867 165.059 196.833C165.246 197.646 165.602 198.303 166.129 198.805C166.67 199.303 167.329 199.684 168.105 199.946C168.878 200.194 169.739 200.363 170.688 200.454C171.634 200.53 172.627 200.546 173.666 200.503L177.964 200.387C180.043 200.3 182 200.403 183.835 200.696C185.67 200.989 187.331 201.508 188.818 202.255C190.304 203.002 191.571 204.011 192.617 205.284C193.679 206.552 194.468 208.121 194.984 209.991C195.707 212.746 195.644 215.32 194.795 217.712C193.956 220.086 192.383 222.178 190.076 223.988C187.78 225.78 184.802 227.166 181.144 228.146C177.514 229.119 174.204 229.41 171.213 229.019C168.237 228.624 165.703 227.539 163.611 225.762C161.53 223.967 160.019 221.461 159.08 218.247L168.278 215.782C168.784 217.262 169.553 218.405 170.585 219.211C171.627 219.998 172.861 220.475 174.286 220.643C175.722 220.791 177.259 220.646 178.899 220.207C180.508 219.775 181.843 219.167 182.903 218.381C183.978 217.591 184.733 216.69 185.168 215.68C185.603 214.669 185.675 213.622 185.385 212.539C185.115 211.529 184.587 210.761 183.803 210.234C183.033 209.703 182.013 209.349 180.742 209.172C179.485 208.991 177.985 208.922 176.24 208.966L171.015 209.049C166.977 209.142 163.598 208.503 160.877 207.13C158.157 205.757 156.358 203.407 155.483 200.081C154.739 197.363 154.826 194.791 155.744 192.364C156.678 189.934 158.279 187.803 160.549 185.971C162.819 184.139 165.593 182.784 168.871 181.906C172.208 181.012 175.273 180.802 178.067 181.277C180.876 181.748 183.248 182.814 185.183 184.476C187.119 186.138 188.467 188.302 189.229 190.969L180.118 193.41ZM240.111 187.57C241.425 192.473 241.613 196.893 240.676 200.83C239.754 204.763 237.94 208.065 235.236 210.735C232.543 213.386 229.213 215.243 225.247 216.305C221.251 217.376 217.422 217.429 213.76 216.465C210.098 215.502 206.884 213.547 204.119 210.602C201.353 207.657 199.315 203.74 198.006 198.852C196.692 193.949 196.496 189.531 197.419 185.598C198.341 181.664 200.149 178.372 202.843 175.721C205.532 173.055 208.875 171.187 212.87 170.116C216.836 169.054 220.651 169.004 224.313 169.968C227.986 170.913 231.205 172.859 233.97 175.804C236.751 178.745 238.797 182.667 240.111 187.57ZM230.474 190.152C229.623 186.976 228.43 184.425 226.894 182.5C225.373 180.57 223.605 179.271 221.591 178.603C219.577 177.935 217.421 177.909 215.123 178.524C212.825 179.14 210.971 180.241 209.561 181.827C208.151 183.412 207.262 185.423 206.895 187.858C206.543 190.29 206.792 193.094 207.643 196.27C208.494 199.445 209.68 201.998 211.201 203.928C212.736 205.854 214.511 207.151 216.526 207.819C218.54 208.487 220.696 208.513 222.994 207.897C225.291 207.282 227.145 206.181 228.556 204.595C229.966 203.01 230.848 201.001 231.2 198.569C231.567 196.134 231.325 193.328 230.474 190.152ZM253.176 208.163L241.129 163.203L250.635 160.656L260.582 197.779L279.856 192.614L281.956 200.451L253.176 208.163ZM304.189 194.494L288.251 198.764L276.204 153.805L292.274 149.499C296.796 148.287 300.93 148.144 304.676 149.07C308.418 149.981 311.617 151.877 314.271 154.758C316.94 157.635 318.9 161.408 320.151 166.076C321.405 170.76 321.598 175.021 320.729 178.862C319.875 182.699 318.043 185.958 315.232 188.641C312.436 191.319 308.755 193.27 304.189 194.494ZM295.574 188.073L301.611 186.455C304.421 185.702 306.652 184.571 308.302 183.063C309.964 181.535 310.995 179.588 311.396 177.222C311.808 174.837 311.565 171.969 310.667 168.617C309.777 165.295 308.559 162.712 307.014 160.867C305.483 159.018 303.626 157.853 301.442 157.372C299.258 156.89 296.761 157.026 293.951 157.779L287.892 159.402L295.574 188.073ZM382.827 149.329C384.14 154.232 384.329 158.652 383.392 162.589C382.469 166.523 380.656 169.824 377.952 172.494C375.258 175.145 371.928 177.002 367.962 178.065C363.967 179.135 360.138 179.189 356.476 178.225C352.814 177.261 349.6 175.307 346.834 172.361C344.069 169.416 342.031 165.5 340.721 160.611C339.407 155.709 339.212 151.291 340.134 147.357C341.057 143.424 342.865 140.132 345.558 137.48C348.248 134.815 351.59 132.947 355.586 131.876C359.552 130.813 363.366 130.764 367.028 131.728C370.701 132.673 373.92 134.618 376.686 137.563C379.466 140.504 381.513 144.426 382.827 149.329ZM373.189 151.912C372.338 148.736 371.145 146.185 369.61 144.259C368.089 142.33 366.321 141.031 364.307 140.363C362.292 139.694 360.136 139.668 357.839 140.284C355.541 140.9 353.687 142 352.277 143.586C350.866 145.172 349.978 147.182 349.611 149.618C349.258 152.05 349.507 154.853 350.358 158.029C351.209 161.205 352.395 163.758 353.916 165.687C355.452 167.613 357.227 168.91 359.241 169.578C361.255 170.246 363.411 170.273 365.709 169.657C368.007 169.041 369.861 167.94 371.271 166.355C372.682 164.769 373.563 162.76 373.915 160.329C374.282 157.893 374.04 155.087 373.189 151.912ZM411.615 117.522L421.121 114.975L428.944 144.172C429.822 147.45 429.808 150.529 428.901 153.407C428.008 156.281 426.349 158.781 423.922 160.906C421.491 163.016 418.417 164.569 414.7 165.565C410.968 166.565 407.522 166.759 404.362 166.147C401.198 165.52 398.511 164.185 396.301 162.142C394.091 160.099 392.546 157.438 391.668 154.16L383.845 124.963L393.35 122.416L400.956 150.801C401.415 152.513 402.196 153.935 403.299 155.067C404.417 156.195 405.766 156.955 407.345 157.348C408.925 157.74 410.63 157.691 412.459 157.201C414.303 156.707 415.804 155.897 416.961 154.771C418.133 153.641 418.913 152.311 419.303 150.779C419.707 149.243 419.68 147.619 419.221 145.907L411.615 117.522ZM429.329 121.175L427.229 113.338L464.154 103.444L466.254 111.281L452.489 114.969L462.436 152.092L453.04 154.609L443.093 117.487L429.329 121.175Z" fill="#FF2400"/>
<rect x="79.1237" y="162.536" width="454.172" height="139.002" rx="15" transform="rotate(-15 79.1237 162.536)" stroke="#FF2400" strokeWidth="10"/>
</svg>
